<svg xmlns="http://www.w3.org/2000/svg" viewBox="0 0 1100 700">
  <defs>
    <style>
      @keyframes pulse {
        0% { opacity: 0; transform: translateX(-20px); }
        50% { opacity: 1; }
        100% { opacity: 0; transform: translateX(20px); }
      }
      @keyframes glow {
        0%, 100% { filter: drop-shadow(0 0 3px #00bcf2); }
        50% { filter: drop-shadow(0 0 8px #00bcf2); }
      }
      @keyframes greenGlow {
        0%, 100% { filter: drop-shadow(0 0 3px #2ea44f); }
        50% { filter: drop-shadow(0 0 8px #2ea44f); }
      }
      @keyframes greenPulse {
        0% { opacity: 0.3; }
        50% { opacity: 1; }
        100% { opacity: 0.3; }
      }
      .pulse-dot { animation: pulse 1.5s ease-in-out infinite; }
      .pulse-dot-delay1 { animation: pulse 1.5s ease-in-out 0.3s infinite; }
      .pulse-dot-delay2 { animation: pulse 1.5s ease-in-out 0.6s infinite; }
      .logo-glow { animation: glow 2s ease-in-out infinite; }
      .green-glow { animation: greenGlow 2s ease-in-out infinite; }
      .green-pulse { animation: greenPulse 1.5s ease-in-out infinite; }
      .green-pulse-delay1 { animation: greenPulse 1.5s ease-in-out 0.5s infinite; }
      .green-pulse-delay2 { animation: greenPulse 1.5s ease-in-out 1s infinite; }
      .title { font-family: 'Segoe UI', Arial, sans-serif; font-size: 18px; font-weight: 600; fill: #fff; }
      .title-large { font-family: 'Segoe UI', Arial, sans-serif; font-size: 22px; font-weight: 600; fill: #fff; }
      .label { font-family: 'Segoe UI', Arial, sans-serif; font-size: 14px; fill: #fff; }
      .sublabel { font-family: 'Segoe UI', Arial, sans-serif; font-size: 12px; fill: #aaa; }
      .section-label { font-family: 'Segoe UI', Arial, sans-serif; font-size: 14px; fill: #ccc; }
      .box { rx: 8; ry: 8; }
      .connector { stroke: #555; stroke-width: 2; fill: none; }
    </style>
    <marker id="arrowhead" markerWidth="8" markerHeight="6" refX="7" refY="3" orient="auto">
      <polygon points="0 0, 8 3, 0 6" fill="#555"/>
    </marker>
    <marker id="greenArrow" markerWidth="12" markerHeight="10" refX="10" refY="5" orient="auto">
      <polygon points="0 0, 12 5, 0 10" fill="#2ea44f"/>
    </marker>
    <!-- Python gradient -->
    <linearGradient id="pythonGrad" x1="0%" y1="0%" x2="100%" y2="100%">
      <stop offset="0%" style="stop-color:#3776ab"/>
      <stop offset="100%" style="stop-color:#ffd43b"/>
    </linearGradient>
    <!-- VS Code gradient -->
    <linearGradient id="vscodeGrad" x1="0%" y1="0%" x2="100%" y2="100%">
      <stop offset="0%" style="stop-color:#007acc"/>
      <stop offset="100%" style="stop-color:#0098ff"/>
    </linearGradient>
    <!-- GitHub gradient -->
    <linearGradient id="githubGrad" x1="0%" y1="0%" x2="100%" y2="100%">
      <stop offset="0%" style="stop-color:#6e40c9"/>
      <stop offset="100%" style="stop-color:#a371f7"/>
    </linearGradient>
    <!-- Azure gradient -->
    <linearGradient id="azureGrad" x1="0%" y1="0%" x2="100%" y2="100%">
      <stop offset="0%" style="stop-color:#0078d4"/>
      <stop offset="100%" style="stop-color:#00bcf2"/>
    </linearGradient>
    <!-- Docker gradient -->
    <linearGradient id="dockerGrad" x1="0%" y1="0%" x2="100%" y2="100%">
      <stop offset="0%" style="stop-color:#0db7ed"/>
      <stop offset="100%" style="stop-color:#384d54"/>
    </linearGradient>
    <!-- Kubernetes gradient -->
    <linearGradient id="k8sGrad" x1="0%" y1="0%" x2="100%" y2="100%">
      <stop offset="0%" style="stop-color:#326ce5"/>
      <stop offset="100%" style="stop-color:#54a3ff"/>
    </linearGradient>
    <!-- CI/CD gradient -->
    <linearGradient id="cicdGrad" x1="0%" y1="0%" x2="100%" y2="100%">
      <stop offset="0%" style="stop-color:#2ea44f"/>
      <stop offset="100%" style="stop-color:#56d364"/>
    </linearGradient>
    <!-- Fabric gradient -->
    <linearGradient id="fabricGrad" x1="0%" y1="0%" x2="100%" y2="100%">
      <stop offset="0%" style="stop-color:#f25022"/>
      <stop offset="100%" style="stop-color:#ffb900"/>
    </linearGradient>
    <!-- Foundry gradient -->
    <linearGradient id="foundryGrad" x1="0%" y1="0%" x2="100%" y2="100%">
      <stop offset="0%" style="stop-color:#5c2d91"/>
      <stop offset="100%" style="stop-color:#8661c5"/>
    </linearGradient>
    <!-- UV gradient -->
    <linearGradient id="uvGrad" x1="0%" y1="0%" x2="100%" y2="100%">
      <stop offset="0%" style="stop-color:#de5fe9"/>
      <stop offset="100%" style="stop-color:#9333ea"/>
    </linearGradient>
  </defs>
  
  <!-- Dark Background -->
  <rect width="1400" height="700" fill="#1a1a1a"/>
  
  <!-- ============ DEVELOPMENT TOOLS (Left Column) ============ -->
  <rect x="20" y="20" width="280" height="660" fill="#121212" stroke="#666" stroke-width="2" class="box"/>
  <text x="160" y="50" class="title-large" text-anchor="middle">Development Tools</text>
  
  <!-- IDE and AI Section (with SpecKit) -->
  <g transform="translate(35, 75)">
    <rect x="0" y="0" width="250" height="175" fill="#1a1a1a" stroke="#007acc" stroke-width="1" class="box"/>
    <text x="125" y="22" class="title" text-anchor="middle">IDE &amp; AI</text>
    
    <!-- VS Code -->
    <g transform="translate(15, 38)">
      <g class="logo-glow">
        <rect x="0" y="0" width="36" height="36" fill="url(#vscodeGrad)" rx="4"/>
        <text x="18" y="24" font-family="Segoe UI" font-size="13" font-weight="bold" fill="#fff" text-anchor="middle">VS</text>
      </g>
      <text x="48" y="14" class="label">VS Code</text>
      <text x="48" y="28" class="sublabel">Editor + Terminal</text>
    </g>
    
    <!-- GitHub Copilot -->
    <g transform="translate(15, 82)">
      <g class="logo-glow">
        <circle cx="18" cy="18" r="18" fill="url(#githubGrad)"/>
        <path d="M 18 8 C 12 8 8 12 8 18 C 8 22.5 11.5 26 16 27 L 16 24 C 13 24 12 22 12 22 C 11.5 21 11 20 10 20 C 9.5 20 10 20.5 11 21 C 12 21.5 12.5 23 14 23.5 C 15 23.8 16 23.5 17 23 L 17 21 C 13 20.5 10 19 10 15 C 10 13.5 10.5 12.5 11.5 11.5 C 11 10.5 11 9 11.5 8 C 13 8 14.5 9 15 9.5 C 16 9 17 9 18 9 C 19 9 20 9 21 9.5 C 21.5 9 23 8 24.5 8 C 25 9 25 10.5 24.5 11.5 C 25.5 12.5 26 13.5 26 15 C 26 19 23 20.5 19 21 L 19 27 C 23.5 26 28 22.5 28 18 C 28 12 24 8 18 8" fill="#fff"/>
      </g>
      <text x="48" y="14" class="label">GitHub Copilot</text>
      <text x="48" y="28" class="sublabel">GPT-5.2, Claude 4.5</text>
    </g>
    
    <!-- SpecKit -->
    <g transform="translate(15, 128)">
      <g class="logo-glow">
        <rect x="0" y="0" width="36" height="36" fill="#f7931e" rx="4"/>
        <text x="18" y="16" font-family="Segoe UI" font-size="8" font-weight="bold" fill="#fff" text-anchor="middle">Spec</text>
        <text x="18" y="28" font-family="Segoe UI" font-size="8" font-weight="bold" fill="#fff" text-anchor="middle">Kit</text>
      </g>
      <text x="48" y="18" class="label">SpecKit</text>
      <text x="48" y="32" class="sublabel">Methodology</text>
    </g>
  </g>
  
  <!-- CI/CD Pipeline Section (moved to left column) -->
  <g transform="translate(35, 265)">
    <rect x="0" y="0" width="250" height="140" fill="#1a1a1a" stroke="#0078d4" stroke-width="1" class="box"/>
    <text x="125" y="22" class="title" text-anchor="middle">CI/CD Pipeline</text>
    
    <!-- GitHub Actions (with box) -->
    <g transform="translate(15, 35)">
      <rect x="-5" y="-5" width="220" height="42" fill="#252525" stroke="#24292e" stroke-width="1" rx="4"/>
      <circle cx="16" cy="16" r="16" fill="#24292e"/>
      <path d="M 16 5 C 10 5 5 10 5 16 C 5 20.5 8 24 12 25.5 L 12 23 C 9 23 8 21 8 21 C 7.5 20 7 19 6 19 C 5.5 19 6 19.5 7 20 C 8 20.5 8.5 22 10 22.5 C 11 22.8 12 22.5 13 22 L 13 20 C 9 19.5 6 18 6 14 C 6 12.5 6.5 11.5 7.5 10.5 C 7 9.5 7 8 7.5 7 C 9 7 10.5 8 11 8.5 C 12 8 13 8 14 8 C 15 8 16 8 17 8.5 C 17.5 8 19 7 20.5 7 C 21 8 21 9.5 20.5 10.5 C 21.5 11.5 22 12.5 22 14 C 22 18 19 19.5 15 20 L 15 25.5 C 19 24 27 20.5 27 16 C 27 10 22 5 16 5" fill="#fff"/>
      <text x="42" y="12" class="label">GitHub Actions</text>
      <text x="42" y="26" class="sublabel">azd pipeline config</text>
    </g>
    
    <!-- App Build (black background with icon and glow) -->
    <g transform="translate(15, 80)" class="green-glow">
      <rect x="0" y="0" width="105" height="45" fill="#1a1a1a" stroke="#2ea44f" stroke-width="2" rx="4"/>
      <g transform="translate(8, 8)">
        <rect x="0" y="0" width="28" height="28" fill="#0db7ed" rx="3"/>
        <rect x="4" y="8" width="8" height="6" fill="#fff" rx="1"/>
        <rect x="14" y="8" width="10" height="12" fill="#fff" rx="1"/>
      </g>
      <text x="65" y="18" font-family="Segoe UI" font-size="9" font-weight="bold" fill="#fff" text-anchor="middle">App Build</text>
      <text x="65" y="32" font-family="Segoe UI" font-size="7" fill="#aaa" text-anchor="middle">Docker→ACR</text>
    </g>
    
    <!-- Infra Build (black background with icon and glow) -->
    <g transform="translate(130, 80)" class="green-glow">
      <rect x="0" y="0" width="105" height="45" fill="#1a1a1a" stroke="#2ea44f" stroke-width="2" rx="4"/>
      <g transform="translate(8, 8)">
        <rect x="0" y="0" width="28" height="28" fill="#0078d4" rx="3"/>
        <path d="M 14 4 L 24 14 L 14 24 L 4 14 Z" fill="#fff"/>
      </g>
      <text x="65" y="18" font-family="Segoe UI" font-size="9" font-weight="bold" fill="#fff" text-anchor="middle">Infra Build</text>
      <text x="65" y="32" font-family="Segoe UI" font-size="7" fill="#aaa" text-anchor="middle">Bicep→ARM</text>
    </g>
  </g>
  
  <!-- Python Section (moved down) -->
  <g transform="translate(35, 420)">
    <rect x="0" y="0" width="250" height="110" fill="#1a1a1a" stroke="#3776ab" stroke-width="1" class="box"/>
    <text x="125" y="22" class="title" text-anchor="middle">Python Ecosystem</text>
    
    <!-- Python -->
    <g transform="translate(15, 35)">
      <circle cx="18" cy="18" r="16" fill="#3776ab"/>
      <text x="18" y="23" font-family="Segoe UI" font-size="11" font-weight="bold" fill="#ffd43b" text-anchor="middle">Py</text>
      <text x="48" y="22" class="label">Python 3.11+</text>
    </g>
    
    <!-- pip -->
    <g transform="translate(130, 35)">
      <rect x="0" y="2" width="32" height="32" fill="#3775a9" rx="4"/>
      <text x="16" y="23" font-family="Segoe UI" font-size="10" font-weight="bold" fill="#fff" text-anchor="middle">pip</text>
      <text x="42" y="22" class="label">pip</text>
    </g>
    
    <!-- uv -->
    <g transform="translate(15, 70)">
      <circle cx="18" cy="18" r="16" fill="url(#uvGrad)"/>
      <text x="18" y="23" font-family="Segoe UI" font-size="11" font-weight="bold" fill="#fff" text-anchor="middle">uv</text>
      <text x="48" y="22" class="label">uv (Astral)</text>
    </g>
  </g>
  
  <!-- Legend -->
  <g transform="translate(35, 595)">
    <rect x="0" y="0" width="250" height="70" fill="#252525" stroke="#666" stroke-width="1" class="box"/>
    <text x="125" y="22" class="title" text-anchor="middle">Legend</text>
    
    <g transform="translate(15, 38)" class="green-glow">
      <line x1="0" y1="10" x2="30" y2="10" stroke="#2ea44f" stroke-width="3"/>
      <polygon points="25 5, 35 10, 25 15" fill="#2ea44f"/>
      <text x="45" y="14" class="sublabel">Deployment Flow</text>
    </g>
  </g>
  
  <!-- ========== DEPLOYMENT FLOW LINES (Green with pulses) ========== -->
  <!-- Short horizontal green lines from Development Tools to Azure Deployment Target -->
  <line x1="300" y1="160" x2="320" y2="160" stroke="#2ea44f" stroke-width="4" class="green-pulse"/>
  <circle cx="305" cy="160" r="3" fill="#2ea44f" class="green-pulse"/>
  <circle cx="312" cy="160" r="3" fill="#2ea44f" class="green-pulse-delay1"/>
  <circle cx="319" cy="160" r="3" fill="#2ea44f" class="green-pulse-delay2"/>
  <line x1="300" y1="335" x2="320" y2="335" stroke="#2ea44f" stroke-width="4" class="green-pulse"/>
  <circle cx="305" cy="335" r="3" fill="#2ea44f" class="green-pulse"/>
  <circle cx="312" cy="335" r="3" fill="#2ea44f" class="green-pulse-delay1"/>
  <circle cx="319" cy="335" r="3" fill="#2ea44f" class="green-pulse-delay2"/>
  
  <!-- ============ AZURE DEPLOYMENT TARGET (Center - Full Height) ============ -->
  <rect x="320" y="20" width="760" height="660" fill="none" stroke="#0078d4" stroke-width="2" stroke-dasharray="8,4" class="box"/>
  <text x="700" y="50" class="title-large" text-anchor="middle">Azure Deployment Target</text>
  
  <!-- Container Services Box (50% height) -->
  <g transform="translate(340, 70)">
    <rect x="0" y="0" width="720" height="280" fill="#121212" stroke="#0078d4" stroke-width="2" class="box"/>
    <text x="360" y="28" class="title" text-anchor="middle">Container Services</text>
    
    <!-- Azure Container Registry -->
    <g transform="translate(20, 45)">
      <rect x="0" y="0" width="180" height="220" fill="#1a1a1a" stroke="#0078d4" stroke-width="1" class="box"/>
      <text x="90" y="24" class="label" text-anchor="middle">Container Registry</text>
      <g transform="translate(60, 80)" class="logo-glow">
        <rect x="0" y="0" width="60" height="40" fill="#0078d4" rx="4"/>
        <rect x="8" y="8" width="44" height="24" fill="none" stroke="#fff" stroke-width="2" rx="2"/>
        <rect x="14" y="14" width="32" height="12" fill="#fff" rx="2"/>
      </g>
    </g>
    
    <!-- Flow: ACR to AKS -->
    <line x1="205" y1="155" x2="225" y2="155" stroke="#2ea44f" stroke-width="3" class="green-pulse"/>
    <circle cx="210" cy="155" r="2" fill="#2ea44f" class="green-pulse"/>
    <circle cx="217" cy="155" r="2" fill="#2ea44f" class="green-pulse-delay1"/>
    
    <!-- Azure Kubernetes Service -->
    <g transform="translate(230, 45)">
      <rect x="0" y="0" width="260" height="220" fill="#1a1a1a" stroke="#326ce5" stroke-width="1" class="box"/>
      <g transform="translate(10, 10)">
        <circle cx="16" cy="16" r="14" fill="url(#k8sGrad)"/>
        <circle cx="16" cy="16" r="4" fill="none" stroke="#fff" stroke-width="1"/>
        <text x="40" y="20" class="label">Azure Kubernetes</text>
      </g>
      <!-- Agent Pods -->
      <g transform="translate(15, 45)">
        <rect x="0" y="0" width="72" height="35" fill="#252525" stroke="#666" stroke-width="1" class="box"/>
        <circle cx="18" cy="17" r="8" fill="#f7931e" class="logo-glow"/>
        <text x="36" y="21" class="sublabel">Pod 1</text>
      </g>
      <g transform="translate(95, 45)">
        <rect x="0" y="0" width="72" height="35" fill="#252525" stroke="#666" stroke-width="1" class="box"/>
        <circle cx="18" cy="17" r="8" fill="#f7931e" class="logo-glow"/>
        <text x="36" y="21" class="sublabel">Pod 2</text>
      </g>
      <g transform="translate(175, 45)">
        <rect x="0" y="0" width="72" height="35" fill="#252525" stroke="#666" stroke-width="1" class="box"/>
        <circle cx="18" cy="17" r="8" fill="#f7931e" class="logo-glow"/>
        <text x="36" y="21" class="sublabel">Pod N</text>
      </g>
      <!-- Workload Identity -->
      <g transform="translate(15, 90)">
        <rect x="0" y="0" width="230" height="45" fill="#252525" stroke="#666" stroke-width="1" class="box"/>
        <polygon points="20,5 35,22 20,39 5,22" fill="#0078d4"/>
        <text x="50" y="26" class="sublabel">Workload Identity</text>
      </g>
    </g>
    
    <!-- Flow: AKS to APIM -->
    <line x1="495" y1="155" x2="515" y2="155" stroke="#2ea44f" stroke-width="3" class="green-pulse"/>
    <circle cx="500" cy="155" r="2" fill="#2ea44f" class="green-pulse"/>
    <circle cx="507" cy="155" r="2" fill="#2ea44f" class="green-pulse-delay1"/>
    
    <!-- Azure API Management -->
    <g transform="translate(520, 45)">
      <rect x="0" y="0" width="180" height="220" fill="#1a1a1a" stroke="#0078d4" stroke-width="1" class="box"/>
      <g transform="translate(10, 10)">
        <path d="M 16 0 L 28 6 L 28 18 L 16 24 L 4 18 L 4 6 Z" fill="#68217a"/>
        <text x="16" y="15" font-family="Segoe UI" font-size="7" font-weight="bold" fill="#fff" text-anchor="middle">API</text>
        <text x="40" y="16" class="label">API Mgmt</text>
      </g>
      <!-- Policies -->
      <g transform="translate(15, 45)">
        <rect x="0" y="0" width="150" height="35" fill="#68217a" stroke="#9b4dca" stroke-width="1" class="box"/>
        <circle cx="20" cy="17" r="10" fill="#9b4dca" class="logo-glow"/>
        <text x="45" y="21" class="sublabel">Policies</text>
      </g>
      <!-- Metrics and Logs -->
      <g transform="translate(15, 90)">
        <rect x="0" y="0" width="70" height="45" fill="#68217a" stroke="#9b4dca" stroke-width="1" class="box"/>
        <rect x="12" y="10" width="6" height="18" fill="#fff"/>
        <rect x="22" y="16" width="6" height="12" fill="#fff"/>
        <rect x="32" y="8" width="6" height="20" fill="#fff"/>
        <text x="35" y="40" class="sublabel" text-anchor="middle">Metrics</text>
      </g>
      <g transform="translate(95, 90)">
        <rect x="0" y="0" width="70" height="45" fill="#68217a" stroke="#9b4dca" stroke-width="1" class="box"/>
        <rect x="12" y="10" width="24" height="4" fill="#fff" rx="1"/>
        <rect x="12" y="18" width="18" height="4" fill="#fff" rx="1"/>
        <rect x="12" y="26" width="24" height="4" fill="#fff" rx="1"/>
        <text x="35" y="40" class="sublabel" text-anchor="middle">Logs</text>
      </g>
    </g>
  </g>
  
  <!-- Green line between Container Services and Azure Resources -->
  <line x1="520" y1="355" x2="520" y2="365" stroke="#2ea44f" stroke-width="4" class="green-pulse"/>
  <circle cx="520" cy="358" r="2" fill="#2ea44f" class="green-pulse"/>
  <circle cx="520" cy="363" r="2" fill="#2ea44f" class="green-pulse-delay1"/>
  
  <!-- Green line between Container Services and Approvals -->
  <line x1="950" y1="355" x2="950" y2="365" stroke="#2ea44f" stroke-width="4" class="green-pulse"/>
  <circle cx="950" cy="358" r="2" fill="#2ea44f" class="green-pulse"/>
  <circle cx="950" cy="363" r="2" fill="#2ea44f" class="green-pulse-delay1"/>
  
  <!-- ============ RESOURCES ROW (Left side, thinner) ============ -->
  <g transform="translate(340, 370)">
    <rect x="0" y="0" width="480" height="290" fill="#121212" stroke="#0078d4" stroke-width="2" class="box"/>
    <text x="240" y="28" class="title" text-anchor="middle">Azure Resources</text>
    
    <!-- Row 1 -->
    <!-- AI Foundry -->
    <g transform="translate(20, 50)">
      <rect x="0" y="0" width="100" height="50" fill="#1a1a1a" stroke="#5c2d91" stroke-width="1" class="box"/>
      <circle cx="25" cy="25" r="14" fill="url(#foundryGrad)"/>
      <text x="25" y="30" font-family="Segoe UI" font-size="9" font-weight="bold" fill="#fff" text-anchor="middle">AI</text>
      <text x="48" y="22" class="sublabel">AI</text>
      <text x="48" y="36" class="sublabel">Foundry</text>
    </g>
    
    <!-- Foundry IQ -->
    <g transform="translate(130, 50)">
      <rect x="0" y="0" width="100" height="50" fill="#1a1a1a" stroke="#5c2d91" stroke-width="1" class="box"/>
      <circle cx="25" cy="25" r="14" fill="url(#foundryGrad)"/>
      <text x="25" y="30" font-family="Segoe UI" font-size="8" font-weight="bold" fill="#fff" text-anchor="middle">IQ</text>
      <text x="48" y="22" class="sublabel">Foundry</text>
      <text x="48" y="36" class="sublabel">IQ</text>
    </g>
    
    <!-- Fabric IQ -->
    <g transform="translate(240, 50)">
      <rect x="0" y="0" width="110" height="50" fill="#1a1a1a" stroke="#f25022" stroke-width="1" class="box"/>
      <rect x="12" y="12" width="26" height="26" fill="url(#fabricGrad)" rx="3"/>
      <text x="48" y="22" class="sublabel">Fabric</text>
      <text x="48" y="36" class="sublabel">IQ</text>
    </g>
    
    <!-- Storage -->
    <g transform="translate(360, 50)">
      <rect x="0" y="0" width="100" height="50" fill="#1a1a1a" stroke="#0078d4" stroke-width="1" class="box"/>
      <rect x="12" y="12" width="26" height="26" fill="#0078d4" rx="3"/>
      <rect x="16" y="16" width="18" height="4" fill="#fff" rx="1"/>
      <rect x="16" y="22" width="18" height="4" fill="#fff" rx="1"/>
      <rect x="16" y="28" width="12" height="4" fill="#fff" rx="1"/>
      <text x="48" y="29" class="sublabel">Storage</text>
    </g>
    
    <!-- Row 2 -->
    <!-- Key Vault -->
    <g transform="translate(20, 115)">
      <rect x="0" y="0" width="100" height="50" fill="#1a1a1a" stroke="#f7931e" stroke-width="1" class="box"/>
      <rect x="12" y="12" width="26" height="26" fill="#f7931e" rx="3"/>
      <circle cx="25" cy="21" r="6" fill="none" stroke="#fff" stroke-width="1.5"/>
      <rect x="22" y="26" width="6" height="8" fill="#fff" rx="1"/>
      <text x="48" y="22" class="sublabel">Key</text>
      <text x="48" y="36" class="sublabel">Vault</text>
    </g>
    
    <!-- Cosmos DB -->
    <g transform="translate(130, 115)">
      <rect x="0" y="0" width="100" height="50" fill="#1a1a1a" stroke="#0078d4" stroke-width="1" class="box"/>
      <circle cx="25" cy="25" r="14" fill="#0078d4"/>
      <ellipse cx="25" cy="25" rx="7" ry="3.5" fill="#fff"/>
      <text x="55" y="22" class="sublabel">Cosmos</text>
      <text x="55" y="36" class="sublabel">DB</text>
    </g>
    
    <!-- Monitor -->
    <g transform="translate(240, 115)">
      <rect x="0" y="0" width="110" height="50" fill="#1a1a1a" stroke="#0078d4" stroke-width="1" class="box"/>
      <rect x="12" y="12" width="26" height="26" fill="#0078d4" rx="3"/>
      <rect x="16" y="24" width="5" height="10" fill="#fff"/>
      <rect x="23" y="18" width="5" height="16" fill="#fff"/>
      <rect x="30" y="21" width="5" height="13" fill="#fff"/>
      <text x="60" y="29" class="sublabel">Monitor</text>
    </g>
    
    <!-- Entra ID -->
    <g transform="translate(360, 115)">
      <rect x="0" y="0" width="100" height="50" fill="#1a1a1a" stroke="#0078d4" stroke-width="1" class="box"/>
      <polygon points="25,8 42,25 25,42 8,25" fill="#0078d4"/>
      <polygon points="25,14 36,25 25,36 14,25" fill="#1a1a1a"/>
      <polygon points="25,20 30,25 25,30 20,25" fill="#0078d4"/>
      <text x="55" y="22" class="sublabel">Entra</text>
      <text x="55" y="36" class="sublabel">ID</text>
    </g>
    
    <!-- Row 3 -->
    <!-- AI Search -->
    <g transform="translate(20, 180)">
      <rect x="0" y="0" width="100" height="50" fill="#1a1a1a" stroke="#0078d4" stroke-width="1" class="box"/>
      <circle cx="22" cy="22" r="10" fill="none" stroke="#0078d4" stroke-width="2"/>
      <line x1="30" y1="30" x2="38" y2="38" stroke="#0078d4" stroke-width="2"/>
      <text x="55" y="22" class="sublabel">AI</text>
      <text x="55" y="36" class="sublabel">Search</text>
    </g>
    
    <!-- Agent Lightning -->
    <g transform="translate(130, 180)">
      <rect x="0" y="0" width="100" height="50" fill="#1a1a1a" stroke="#f7931e" stroke-width="1" class="box"/>
      <g transform="translate(8, 8)">
        <path d="M 14 0 L 5 16 L 12 16 L 8 34 L 26 14 L 18 14 L 22 0 Z" fill="#f7931e"/>
      </g>
      <text x="48" y="22" class="sublabel">Agent</text>
      <text x="48" y="36" class="sublabel">Lightning</text>
    </g>
    
    <!-- Private Network -->
    <g transform="translate(240, 180)">
      <rect x="0" y="0" width="110" height="50" fill="#1a1a1a" stroke="#27ae60" stroke-width="1" class="box"/>
      <path d="M 12 25 L 38 25" stroke="#27ae60" stroke-width="2"/>
      <circle cx="12" cy="25" r="5" fill="#27ae60"/>
      <circle cx="38" cy="25" r="5" fill="#27ae60"/>
      <text x="60" y="22" class="sublabel">Private</text>
      <text x="60" y="36" class="sublabel">Network</text>
    </g>
    
    <!-- App Insights -->
    <g transform="translate(360, 180)">
      <rect x="0" y="0" width="100" height="50" fill="#1a1a1a" stroke="#9b59b6" stroke-width="1" class="box"/>
      <circle cx="25" cy="25" r="14" fill="#9b59b6"/>
      <circle cx="25" cy="25" r="7" fill="none" stroke="#fff" stroke-width="1.5"/>
      <circle cx="25" cy="25" r="3" fill="#fff"/>
      <text x="55" y="22" class="sublabel">App</text>
      <text x="55" y="36" class="sublabel">Insights</text>
    </g>
  </g>
  
  <!-- ============ APPROVALS (Inside Deployment Target, right side) ============ -->
  <g transform="translate(840, 370)">
    <rect x="0" y="0" width="220" height="140" fill="#121212" stroke="#0078d4" stroke-width="2" class="box"/>
    <text x="110" y="24" class="title" text-anchor="middle">Approvals</text>
    
    <!-- Human in the Loop (with glow) -->
    <g transform="translate(15, 40)">
      <rect x="0" y="0" width="190" height="35" fill="#1a1a1a" stroke="#0078d4" stroke-width="1" class="box"/>
      <g class="green-glow">
        <rect x="8" y="8" width="20" height="20" fill="#0078d4" rx="2"/>
        <text x="18" y="22" font-family="Segoe UI" font-size="7" font-weight="bold" fill="#fff" text-anchor="middle">365</text>
      </g>
      <text x="45" y="22" class="sublabel green-glow">Human-in-the-Loop</text>
    </g>
    
    <!-- Teams -->
    <g transform="translate(15, 80)">
      <rect x="0" y="0" width="190" height="35" fill="#1a1a1a" stroke="#6264a7" stroke-width="1" class="box"/>
      <rect x="8" y="8" width="20" height="20" fill="#6264a7" rx="2"/>
      <text x="18" y="22" font-family="Segoe UI" font-size="8" font-weight="bold" fill="#fff" text-anchor="middle">T</text>
      <text x="45" y="22" class="sublabel">Teams Notifications</text>
    </g>
  </g>
  
  <!-- ============ AZURE REQUIREMENTS (Inside Deployment Target, right side below Approvals) ============ -->
  <g transform="translate(840, 520)">
    <rect x="0" y="0" width="220" height="140" fill="#121212" stroke="#0078d4" stroke-width="2" class="box"/>
    <text x="110" y="24" class="title" text-anchor="middle">Azure Requirements</text>
    
    <!-- Subscription -->
    <g transform="translate(15, 40)">
      <rect x="0" y="0" width="90" height="40" fill="#1a1a1a" stroke="#0078d4" stroke-width="1" class="box"/>
      <rect x="8" y="8" width="20" height="20" fill="#0078d4" rx="2"/>
      <text x="38" y="18" class="sublabel">Sub-</text>
      <text x="38" y="32" class="sublabel">scription</text>
    </g>
    
    <!-- Quota -->
    <g transform="translate(115, 40)">
      <rect x="0" y="0" width="90" height="40" fill="#1a1a1a" stroke="#0078d4" stroke-width="1" class="box"/>
      <rect x="8" y="8" width="20" height="20" fill="#0078d4" rx="2"/>
      <text x="38" y="24" class="sublabel">Quota</text>
    </g>
    
    <!-- Language Models -->
    <g transform="translate(15, 90)">
      <rect x="0" y="0" width="90" height="40" fill="#1a1a1a" stroke="#5c2d91" stroke-width="1" class="box"/>
      <circle cx="18" cy="20" r="10" fill="url(#foundryGrad)"/>
      <text x="38" y="18" class="sublabel">Language</text>
      <text x="38" y="30" class="sublabel">Models</text>
    </g>
    
    <!-- Embeddings Models -->
    <g transform="translate(115, 90)">
      <rect x="0" y="0" width="90" height="40" fill="#1a1a1a" stroke="#f25022" stroke-width="1" class="box"/>
      <rect x="8" y="10" width="20" height="20" fill="url(#fabricGrad)" rx="2"/>
      <text x="42" y="18" class="sublabel">Embed</text>
      <text x="42" y="30" class="sublabel">Models</text>
    </g>
  </g>
  
</svg>